<svg xmlns="http://www.w3.org/2000/svg" width="256" height="256" viewBox="0 0 100 100"><rect width="100" height="100" rx="20" fill="#0050c2"></rect><path fill="#fff" d="M51.04 28.67L51.04 28.67Q51.04 29.93 50.27 30.83Q49.51 31.73 48.52 32.18L48.52 32.18Q46.18 30.56 43.03 29.12Q39.88 27.68 34.84 27.68L34.84 27.68Q30.70 27.68 27.19 29.12Q23.68 30.56 21.07 33.35Q18.46 36.14 16.97 40.37Q15.49 44.60 15.49 50.09L15.49 50.09Q15.49 55.67 16.93 59.81Q18.37 63.95 20.93 66.74Q23.50 69.53 27.10 70.92Q30.70 72.32 35.11 72.32L35.11 72.32Q39.79 72.32 43.25 71.02Q46.72 69.71 49.05 67.91L49.05 67.91Q49.96 68.27 50.77 69.22Q51.58 70.16 51.58 71.42L51.58 71.42Q51.58 73.31 49.42 74.84L49.42 74.84Q47.35 76.28 43.75 77.41Q40.15 78.53 34.57 78.53L34.57 78.53Q28.90 78.53 24.04 76.73Q19.18 74.93 15.62 71.38Q12.07 67.82 10.00 62.51Q7.93 57.20 7.93 50.09L7.93 50.09Q7.93 42.98 10.04 37.63Q12.16 32.27 15.76 28.67Q19.36 25.07 24.17 23.27Q28.99 21.47 34.30 21.47L34.30 21.47Q37.99 21.47 41.09 22.10Q44.20 22.73 46.40 23.77Q48.61 24.80 49.82 26.11Q51.04 27.41 51.04 28.67ZM92.07 66.29L92.07 66.29Q92.07 72.05 87.84 75.29Q83.61 78.53 75.61 78.53L75.61 78.53Q72.19 78.53 69.31 77.94Q66.42 77.36 64.40 76.42Q62.38 75.47 61.25 74.25Q60.13 73.04 60.13 71.78L60.13 71.78Q60.13 70.70 60.71 69.71Q61.30 68.72 62.46 68L62.46 68Q64.89 69.80 68.14 71.19Q71.38 72.59 75.52 72.59L75.52 72.59Q84.88 72.59 84.88 66.29L84.88 66.29Q84.88 61.16 78.66 59.63L78.66 59.63L71.19 57.65Q65.70 56.21 63.19 53.47Q60.66 50.72 60.66 46.40L60.66 46.40Q60.66 44.06 61.61 41.90Q62.55 39.74 64.53 38.12Q66.52 36.50 69.44 35.55Q72.36 34.61 76.33 34.61L76.33 34.61Q82.63 34.61 86.50 36.45Q90.36 38.30 90.36 40.73L90.36 40.73Q90.36 41.90 89.78 42.80Q89.19 43.70 88.20 44.15L88.20 44.15Q86.58 43.07 83.61 41.81Q80.64 40.55 76.59 40.55L76.59 40.55Q72.55 40.55 70.16 42.08Q67.78 43.61 67.78 46.40L67.78 46.40Q67.78 48.47 69.13 49.91Q70.47 51.35 73.63 52.07L73.63 52.07L79.83 53.60Q85.95 55.13 89.02 58.14Q92.07 61.16 92.07 66.29Z"></path></svg>